# xmcd CD database file
#
# Track frame offsets:
#	150
#	62137
#	78612
#	103787
#	142982
#	165908
#	188129
#	214682
#
# Disc length: 3178 seconds
#
# Revision: 0
# Processed by: cddbd v1.5.1PL2 Copyright (c) Steve Scherf et al.
# Submitted via: CDex 1.51
#
DISCID=680c6808
DTITLE=Diverse - Ostsee Jazz 2000
DYEAR=2000
DGENRE=Jazz
TTITLE0=Jasper vant Hof - Pili Pili
TTITLE1=Matthias Hülsemann - My favorite thing
TTITLE2=Phil Carmen - Blues in the night
TTITLE3=Westcoast Orchestra - Comportamendo de Una Crianza
TTITLE4=Eric Plandé Trio - Moon over Burbon Street
TTITLE5=Basar - River song
TTITLE6=Jazzkantine - 55555
TTITLE7=Charlie Mariano - Plum Island
EXTD=YEAR: 2000
EXTT0=
EXTT1=
EXTT2=
EXTT3=
EXTT4=
EXTT5=
EXTT6=
EXTT7=
PLAYORDER=
